<svg xmlns="http://www.w3.org/2000/svg" width="200" height="200" viewBox="0.25 0.25 200 200" enable-background="new 0.25 0.25 200 200"><g fill="#0F0F0F"><path d="M82.193 82.835c-12.7 1.7-27.3 6.4-40.4 13-6.7 3.3-8.1 4.4-8.1 6.4 0 1.3-1.1 3.5-2.5 5-2.5 2.8-3.3 8.1-1.9 13.4.6 2 1.2 2.3 5.2 2 4.1-.3 4.5-.5 4.8-3.1.6-5.601 6.9-11.7 12.2-11.7 6.3 0 13.2 6.5 13.2 12.4v2.6h69v-2.5c0-4.2 2.8-8.3 7-10.5 5-2.5 7.6-2.5 11.901.1 4.5 2.8 6.898 5.7 7.699 9.6.5 2.899 1 3.3 3.801 3.2 7.5-.2 7.799-.601 7.799-9.101 0-4.2-.299-8.2-.699-8.8-2.4-3.9-20.4-9-31.901-9-4 0-5.899-.7-10.8-4-6.7-4.5-16.899-7.9-27.3-9.1-8.1-.899-10.8-.899-19 .101zm32.5 7.3c8.6 3.4 13 5.6 13 6.8 0 1.3-42.7 1.2-43.2-.1-.2-.6-.1-3.1.1-5.7l.3-4.6 11.7.6c9.199.4 13 1 18.1 3zm-36.5 2.8v4.4l-13.7.3c-7.7.1-13.8-.1-13.8-.6 0-1.6 23.8-9.4 26.5-8.8.6.2 1 2.3 1 4.7zM47.093 113.035c-5.8 2.8-5.6 13 .3 15.7 8.4 3.8 16.4-4.2 12.1-12.2-2.4-4.5-7.4-5.9-12.4-3.5zm7.6 5.3c2.6 3.2-1.3 8.1-4.7 5.9-3.5-2.2-2.3-7.4 1.7-7.4 1 0 2.3.7 3 1.5zM141.393 112.935c-2.9 1.7-4.601 6.7-3.601 10.3 1.7 6 7.9 8.199 13.901 5.1 5.9-3 6.699-9.1 1.9-13.6-3.301-3.1-8.6-3.9-12.2-1.8zm8.3 5.8c1.299 2.5.4 4.8-2.1 5.6-3.801 1.2-6.5-3.5-3.7-6.3 1.8-1.8 4.6-1.4 5.8.7z"/></g><g fill="#A1A1A1"><path d="M84.593 91.135c-.2 2.6-.3 5.1-.1 5.7.5 1.3 43.2 1.4 43.2.1 0-1.2-4.4-3.4-13-6.8-5.1-2-8.9-2.6-18.1-3l-11.7-.6-.3 4.6zM67.893 90.335c-10.8 3.1-17.2 5.5-17.2 6.7 0 .5 6.1.7 13.8.6l13.7-.3v-4.4c0-2.4-.4-4.5-1-4.7-.5-.1-4.7.8-9.3 2.1zM48.693 118.335c-2.6 3.2 1.3 8.1 4.8 5.9 3.4-2.2 2.2-7.4-1.8-7.4-1 0-2.3.7-3 1.5zM143.893 118.035c-2.8 2.8-.101 7.5 3.7 6.3 2.5-.8 3.399-3.1 2.1-5.6-1.2-2.1-4-2.5-5.8-.7z"/></g></svg>